<mxfile host="app.diagrams.net" modified="2024-03-09T13:46:47.450Z" agent="Mozilla/5.0 (Windows NT 10.0; Win64; x64) AppleWebKit/537.36 (KHTML, like Gecko) Chrome/122.0.0.0 Safari/537.36" etag="HhqUywOyHaovypZv4dXm" version="24.0.4" type="device">
  <diagram name="Page-1" id="B73snQ-Z8GxG6X1UaP72">
    <mxGraphModel dx="880" dy="500" grid="1" gridSize="10" guides="1" tooltips="1" connect="1" arrows="1" fold="1" page="1" pageScale="1" pageWidth="850" pageHeight="1100" math="0" shadow="0">
      <root>
        <mxCell id="0" />
        <mxCell id="1" parent="0" />
        <mxCell id="p7MjhTOm8zEY9oJfQGLG-51" style="edgeStyle=orthogonalEdgeStyle;rounded=0;orthogonalLoop=1;jettySize=auto;html=1;entryX=0;entryY=0.5;entryDx=0;entryDy=0;" parent="1" source="p7MjhTOm8zEY9oJfQGLG-29" target="p7MjhTOm8zEY9oJfQGLG-36" edge="1">
          <mxGeometry relative="1" as="geometry" />
        </mxCell>
        <mxCell id="p7MjhTOm8zEY9oJfQGLG-52" style="edgeStyle=orthogonalEdgeStyle;rounded=0;orthogonalLoop=1;jettySize=auto;html=1;entryX=0;entryY=0.5;entryDx=0;entryDy=0;" parent="1" source="p7MjhTOm8zEY9oJfQGLG-29" target="p7MjhTOm8zEY9oJfQGLG-33" edge="1">
          <mxGeometry relative="1" as="geometry">
            <Array as="points">
              <mxPoint x="95" y="305" />
            </Array>
          </mxGeometry>
        </mxCell>
        <mxCell id="yA249pHq-fzT3yI2vgFh-3" style="edgeStyle=orthogonalEdgeStyle;rounded=0;orthogonalLoop=1;jettySize=auto;html=1;entryX=0;entryY=0.5;entryDx=0;entryDy=0;" edge="1" parent="1" source="p7MjhTOm8zEY9oJfQGLG-29" target="p7MjhTOm8zEY9oJfQGLG-40">
          <mxGeometry relative="1" as="geometry">
            <Array as="points">
              <mxPoint x="95" y="635" />
            </Array>
          </mxGeometry>
        </mxCell>
        <mxCell id="p7MjhTOm8zEY9oJfQGLG-29" value="Smart Sensing Chair Sensors" style="rounded=1;whiteSpace=wrap;html=1;fillColor=#ffe6cc;strokeColor=#d79b00;" parent="1" vertex="1">
          <mxGeometry y="445" width="190" height="60" as="geometry" />
        </mxCell>
        <mxCell id="p7MjhTOm8zEY9oJfQGLG-54" style="edgeStyle=orthogonalEdgeStyle;rounded=0;orthogonalLoop=1;jettySize=auto;html=1;entryX=0;entryY=0.5;entryDx=0;entryDy=0;" parent="1" source="p7MjhTOm8zEY9oJfQGLG-33" target="p7MjhTOm8zEY9oJfQGLG-45" edge="1">
          <mxGeometry relative="1" as="geometry" />
        </mxCell>
        <mxCell id="p7MjhTOm8zEY9oJfQGLG-56" style="edgeStyle=orthogonalEdgeStyle;rounded=0;orthogonalLoop=1;jettySize=auto;html=1;entryX=0;entryY=0.5;entryDx=0;entryDy=0;" parent="1" source="p7MjhTOm8zEY9oJfQGLG-33" target="p7MjhTOm8zEY9oJfQGLG-44" edge="1">
          <mxGeometry relative="1" as="geometry" />
        </mxCell>
        <mxCell id="p7MjhTOm8zEY9oJfQGLG-57" style="edgeStyle=orthogonalEdgeStyle;rounded=0;orthogonalLoop=1;jettySize=auto;html=1;entryX=0;entryY=0.5;entryDx=0;entryDy=0;" parent="1" source="p7MjhTOm8zEY9oJfQGLG-33" target="p7MjhTOm8zEY9oJfQGLG-41" edge="1">
          <mxGeometry relative="1" as="geometry" />
        </mxCell>
        <mxCell id="p7MjhTOm8zEY9oJfQGLG-33" value="Pressure Sensors" style="rounded=1;whiteSpace=wrap;html=1;strokeColor=#82b366;align=center;verticalAlign=middle;fontFamily=Helvetica;fontSize=12;fillColor=#d5e8d4;" parent="1" vertex="1">
          <mxGeometry x="230" y="280" width="140" height="50" as="geometry" />
        </mxCell>
        <mxCell id="p7MjhTOm8zEY9oJfQGLG-58" style="edgeStyle=orthogonalEdgeStyle;rounded=0;orthogonalLoop=1;jettySize=auto;html=1;entryX=0;entryY=0.5;entryDx=0;entryDy=0;" parent="1" source="p7MjhTOm8zEY9oJfQGLG-36" target="p7MjhTOm8zEY9oJfQGLG-43" edge="1">
          <mxGeometry relative="1" as="geometry" />
        </mxCell>
        <mxCell id="p7MjhTOm8zEY9oJfQGLG-59" style="edgeStyle=orthogonalEdgeStyle;rounded=0;orthogonalLoop=1;jettySize=auto;html=1;entryX=0;entryY=0.5;entryDx=0;entryDy=0;" parent="1" source="p7MjhTOm8zEY9oJfQGLG-36" target="p7MjhTOm8zEY9oJfQGLG-42" edge="1">
          <mxGeometry relative="1" as="geometry" />
        </mxCell>
        <mxCell id="p7MjhTOm8zEY9oJfQGLG-36" value="Motion Sensors" style="rounded=1;whiteSpace=wrap;html=1;fillColor=#d5e8d4;strokeColor=#82b366;" parent="1" vertex="1">
          <mxGeometry x="230" y="450" width="140" height="50" as="geometry" />
        </mxCell>
        <mxCell id="p7MjhTOm8zEY9oJfQGLG-60" style="edgeStyle=orthogonalEdgeStyle;rounded=0;orthogonalLoop=1;jettySize=auto;html=1;entryX=0;entryY=0.5;entryDx=0;entryDy=0;" parent="1" source="p7MjhTOm8zEY9oJfQGLG-40" target="p7MjhTOm8zEY9oJfQGLG-47" edge="1">
          <mxGeometry relative="1" as="geometry" />
        </mxCell>
        <mxCell id="p7MjhTOm8zEY9oJfQGLG-61" style="edgeStyle=orthogonalEdgeStyle;rounded=0;orthogonalLoop=1;jettySize=auto;html=1;entryX=0;entryY=0.5;entryDx=0;entryDy=0;" parent="1" source="p7MjhTOm8zEY9oJfQGLG-40" target="p7MjhTOm8zEY9oJfQGLG-46" edge="1">
          <mxGeometry relative="1" as="geometry" />
        </mxCell>
        <mxCell id="p7MjhTOm8zEY9oJfQGLG-62" style="edgeStyle=orthogonalEdgeStyle;rounded=0;orthogonalLoop=1;jettySize=auto;html=1;entryX=0;entryY=0.5;entryDx=0;entryDy=0;" parent="1" source="p7MjhTOm8zEY9oJfQGLG-40" target="p7MjhTOm8zEY9oJfQGLG-48" edge="1">
          <mxGeometry relative="1" as="geometry" />
        </mxCell>
        <mxCell id="p7MjhTOm8zEY9oJfQGLG-40" value="Others" style="rounded=1;whiteSpace=wrap;html=1;fillColor=#d5e8d4;strokeColor=#82b366;" parent="1" vertex="1">
          <mxGeometry x="230" y="610" width="140" height="50" as="geometry" />
        </mxCell>
        <mxCell id="p7MjhTOm8zEY9oJfQGLG-41" value="FSR Sensor" style="rounded=1;whiteSpace=wrap;html=1;strokeColor=#6c8ebf;align=center;verticalAlign=middle;fontFamily=Helvetica;fontSize=12;fillColor=#dae8fc;" parent="1" vertex="1">
          <mxGeometry x="463" y="350" width="140" height="50" as="geometry" />
        </mxCell>
        <mxCell id="p7MjhTOm8zEY9oJfQGLG-42" value="Accelerometer" style="rounded=1;whiteSpace=wrap;html=1;strokeColor=#6c8ebf;align=center;verticalAlign=middle;fontFamily=Helvetica;fontSize=12;fillColor=#dae8fc;" parent="1" vertex="1">
          <mxGeometry x="463" y="480" width="140" height="50" as="geometry" />
        </mxCell>
        <mxCell id="p7MjhTOm8zEY9oJfQGLG-43" value="Gyroscope" style="rounded=1;whiteSpace=wrap;html=1;strokeColor=#6c8ebf;align=center;verticalAlign=middle;fontFamily=Helvetica;fontSize=12;fillColor=#dae8fc;fontColor=default;" parent="1" vertex="1">
          <mxGeometry x="463" y="420" width="140" height="50" as="geometry" />
        </mxCell>
        <mxCell id="p7MjhTOm8zEY9oJfQGLG-44" value="Textile Pressure Sensor" style="rounded=1;whiteSpace=wrap;html=1;strokeColor=#6c8ebf;align=center;verticalAlign=middle;fontFamily=Helvetica;fontSize=12;fillColor=#dae8fc;" parent="1" vertex="1">
          <mxGeometry x="463" y="230" width="140" height="50" as="geometry" />
        </mxCell>
        <mxCell id="p7MjhTOm8zEY9oJfQGLG-45" value="Load Cells" style="rounded=1;whiteSpace=wrap;html=1;strokeColor=#6c8ebf;align=center;verticalAlign=middle;fontFamily=Helvetica;fontSize=12;fillColor=#dae8fc;" parent="1" vertex="1">
          <mxGeometry x="463" y="290" width="140" height="50" as="geometry" />
        </mxCell>
        <mxCell id="p7MjhTOm8zEY9oJfQGLG-46" value="Flex Sensor" style="rounded=1;whiteSpace=wrap;html=1;strokeColor=#6c8ebf;align=center;verticalAlign=middle;fontFamily=Helvetica;fontSize=12;fillColor=#dae8fc;fontColor=default;" parent="1" vertex="1">
          <mxGeometry x="463" y="550" width="140" height="50" as="geometry" />
        </mxCell>
        <mxCell id="p7MjhTOm8zEY9oJfQGLG-47" value="Image Sensor" style="rounded=1;whiteSpace=wrap;html=1;strokeColor=#6c8ebf;align=center;verticalAlign=middle;fontFamily=Helvetica;fontSize=12;fillColor=#dae8fc;fontColor=default;" parent="1" vertex="1">
          <mxGeometry x="463" y="670" width="140" height="50" as="geometry" />
        </mxCell>
        <mxCell id="p7MjhTOm8zEY9oJfQGLG-48" value="Ultrasonic Proximity Sensor" style="rounded=1;whiteSpace=wrap;html=1;strokeColor=#6c8ebf;align=center;verticalAlign=middle;fontFamily=Helvetica;fontSize=12;fillColor=#dae8fc;fontColor=default;" parent="1" vertex="1">
          <mxGeometry x="463" y="610" width="140" height="50" as="geometry" />
        </mxCell>
      </root>
    </mxGraphModel>
  </diagram>
</mxfile>
